<?xml version="1.0" encoding="UTF-8" standalone="no"?>
<!-- Created with Inkscape (http://www.inkscape.org/) -->

<svg
   xmlns:dc="http://purl.org/dc/elements/1.1/"
   xmlns:cc="http://creativecommons.org/ns#"
   xmlns:rdf="http://www.w3.org/1999/02/22-rdf-syntax-ns#"
   xmlns:svg="http://www.w3.org/2000/svg"
   xmlns="http://www.w3.org/2000/svg"
   xmlns:sodipodi="http://sodipodi.sourceforge.net/DTD/sodipodi-0.dtd"
   xmlns:inkscape="http://www.inkscape.org/namespaces/inkscape"
   width="800"
   height="100"
   viewBox="0 0 800.00001 100"
   id="svg5433"
   version="1.1"
   inkscape:version="0.91 r13725"
   sodipodi:docname="baner.svg">
  <defs
     id="defs5435" />
  <sodipodi:namedview
     id="base"
     pagecolor="#ffffff"
     bordercolor="#666666"
     borderopacity="1.0"
     inkscape:pageopacity="0.0"
     inkscape:pageshadow="2"
     inkscape:zoom="0.98994949"
     inkscape:cx="398.16777"
     inkscape:cy="-133.37646"
     inkscape:document-units="px"
     inkscape:current-layer="layer1"
     showgrid="false"
     units="px"
     fit-margin-top="0"
     fit-margin-left="0"
     fit-margin-right="0"
     fit-margin-bottom="0"
     inkscape:window-width="1416"
     inkscape:window-height="923"
     inkscape:window-x="992"
     inkscape:window-y="24"
     inkscape:window-maximized="0" />
  <metadata
     id="metadata5438">
    <rdf:RDF>
      <cc:Work
         rdf:about="">
        <dc:format>image/svg+xml</dc:format>
        <dc:type
           rdf:resource="http://purl.org/dc/dcmitype/StillImage" />
        <dc:title></dc:title>
      </cc:Work>
    </rdf:RDF>
  </metadata>
  <g
     inkscape:label="Layer 1"
     inkscape:groupmode="layer"
     id="layer1"
     transform="translate(46.467018,-582.64124)">
    <circle
       id="path5459"
       style="fill:#000000;stroke:none"
       cx="-31.428572"
       cy="-181.92352"
       r="1.5" />
    <g
       id="g5477">
      <rect
         y="582.64124"
         x="-46.467018"
         height="100"
         width="800"
         id="rect5475"
         style="opacity:1;fill:#00ffff;fill-opacity:1;stroke:none;stroke-width:8;stroke-linejoin:miter;stroke-miterlimit:4;stroke-dasharray:none;stroke-dashoffset:0;stroke-opacity:1" />
      <text
         sodipodi:linespacing="125%"
         id="text5441"
         y="642.51111"
         x="121.65971"
         style="font-style:normal;font-weight:normal;font-size:32.95500183px;line-height:125%;font-family:sans-serif;letter-spacing:0px;word-spacing:0px;fill:#000000;fill-opacity:1;stroke:none;stroke-width:1px;stroke-linecap:butt;stroke-linejoin:miter;stroke-opacity:1"
         xml:space="preserve"><tspan
           y="642.51111"
           x="121.65971"
           id="tspan5443"
           sodipodi:role="line">DZIAŁANIA MATEMATYCZNE</tspan></text>
      <path
         inkscape:connector-curvature="0"
         id="path5470"
         d="m 667.06017,605.67053 a 14.727144,14.727144 0 0 0 -14.72716,14.72741 14.727144,14.727144 0 0 0 14.72716,14.72708 14.727144,14.727144 0 0 0 4.587,-0.7519 l 0,24.4119 39.59433,0 0,-34.28288 -30.0487,0 a 14.727144,14.727144 0 0 0 0.59437,-4.1042 14.727144,14.727144 0 0 0 -14.727,-14.72741 z"
         style="opacity:1;fill:#008000;fill-opacity:1;stroke:#000000;stroke-width:1.352;stroke-linejoin:miter;stroke-miterlimit:4;stroke-dasharray:none;stroke-dashoffset:0;stroke-opacity:1" />
      <path
         inkscape:connector-curvature="0"
         id="path5445"
         d="m 34.358947,601.99169 c 0,0 -0.251138,0.9891 -19.758802,40.96453 a 14.5218,12.908266 0 0 0 -4.44436,-0.6275 14.5218,12.908266 0 0 0 -14.5217559,12.9082 14.5218,12.908266 0 0 0 14.5217559,12.9081 14.5218,12.908266 0 0 0 14.521747,-12.9081 14.5218,12.908266 0 0 0 -3.583649,-8.4665 l 43.384352,-13.5855 -30.119288,-31.19509 z"
         style="opacity:1;fill:#008000;fill-opacity:1;stroke:#000000;stroke-width:1.5059644;stroke-linejoin:miter;stroke-miterlimit:4;stroke-dasharray:none;stroke-dashoffset:0;stroke-opacity:1" />
    </g>
  </g>
</svg>
