<?xml version="1.0"?>
<!DOCTYPE svg PUBLIC "-//W3C//DTD SVG 1.1//EN"
 "http://www.w3.org/Graphics/SVG/1.1/DTD/svg11.dtd">
<svg viewBox="0 0 300 300" version="1.1"
	xmlns="http://www.w3.org/2000/svg"
	xmlns:xlink="http://www.w3.org/1999/xlink">
<!--	<pattern id="rulerPattern" patternUnits="userSpaceOnUse"
		x="0" y="0" width="10" height="10"
		viewBox="0 0 10 10" >
		<line x1="0" y1="0" x2="10" y2="0" stroke="lightgray" fill="none" />
		<line x1="0" y1="0" x2="0" y2="10" stroke="lightgray" fill="none"/>
	</pattern>
	<rect x="0" y="0" width="100%" height="100%" fill="url(#rulerPattern)" stroke="gray" />
-->  
<defs>
	<g id="quater">
		<rect x="145" y="15" width="10" height="25" />
		<rect x="145" y="15" width="10" height="15" transform="rotate(30,150,150)" />
		<rect x="145" y="15" width="10" height="15" transform="rotate(60,150,150)" />
	</g>
	<g id="secondGroup">
		<rect x="147" y="30" height="145" width="6" fill="black" />
		<circle cx="150" cy="15" r="3" stroke="black" fill="white" />
	</g>
	<g id="hourGroup">
		<rect x="145" y="65" height="110" width="10" transform="rotate(0,150,150)" fill="black" />
		<circle cx="150" cy="15" r="9" stroke="black" stroke-width="2" fill="white" />
		</g>
	<g id="minuteGroup">
		<rect x="145" y="35" height="140" width="10" transform="rotate(0,150,150)" fill="black" />
		<circle cx="150" cy="15" r="6" stroke-width="1" fill="white" stroke="black" />
	</g>
	</defs>
	<circle cx="150" cy="150" r="135"
		stroke-width="12"
		stroke="black" fill="white"/>
<use xlink:href="#quater" />
	<use xlink:href="#quater" transform="rotate(90,150,150)" />
	<use xlink:href="#quater" transform="rotate(90,150,150)" />
	<use xlink:href="#quater" transform="rotate(180,150,150)" />
	<use xlink:href="#quater" transform="rotate(270,150,150)" />
	<use xlink:href="#hourGroup" transform="rotate(0,150,150)" id="hourHand"/>
	<use xlink:href="#minuteGroup" transform="rotate(0,150,150)" id="minuteHand"/>
	<use xlink:href="#secondGroup" transform="rotate(0,150,150)" id="secondHand"/>
	<circle cx="150" cy="150" r="6"
		stroke-width="2"
		stroke="white" fill="black"/>
<script>
		<!-- ANIMACJA --> 
    var secondHand = document.getElementById('secondHand');
    var minuteHand = document.getElementById('minuteHand');
    var hourHand = document.getElementById('hourHand');  
   
    <!-- ZMIENNE GLOBALNE -->
    function doAnimation() {
      <!-- SKRYPT ANIMACJI --> 
      var date = new Date();
      var second = date.getSeconds();
      var minute = date.getMinutes();
      var hour = date.getHours() % 12;
      <!-- MODYFIKACJA -->   
      
      minuteHand.setAttribute('transform','rotate('+(minute / 60 * 360)+',150,150)');
      hourHand.setAttribute('transform','rotate('+(hour / 12 * 360)+',150,150)');
      secondHand.transform.baseVal.getItem(0).setRotate((second / 60 * 360),150,150);
    }
    doAnimation();
    setInterval('doAnimation()',1000);
</script>
</svg>