<?xml version="1.0"?>
<svg width="640" height="480" xmlns="http://www.w3.org/2000/svg" xmlns:svg="http://www.w3.org/2000/svg">
 <!-- Created with SVG-edit - http://svg-edit.googlecode.com/ -->
 <defs>
  <linearGradient spreadMethod="reflect" y1="0.074219" x1="0.346354" y2="0.828125" x2="0.72526" id="svg_2">
   <stop offset="0" stop-color="#000000"/>
   <stop offset="1" stop-color="#ffffff"/>
  </linearGradient>
  <linearGradient y1="0.035156" x1="0.10026" y2="0.886719" x2="0.854167" id="svg_3">
   <stop offset="0" stop-color="#FF0000"/>
   <stop offset="1" stop-color="#00ffff"/>
  </linearGradient>
 </defs>
 <title>Glowa kota</title>
 <g>
  <title>Layer 1</title>
  <path fill="#FF0000" stroke="#000000" stroke-width="2" stroke-dasharray="null" stroke-linejoin="null" stroke-linecap="null" d="m166,157l34,-70l14,72c0,0 22,-29 47,-2c2,1 33,-67 33,-67c0,0 21,70 21,70c0,0 38,89 21,117c-17,28 -34,66 -105,59c-71,-7 -73,-38 -86,-71c-13,-33 21,-108 21,-108z" id="svg_4"/>
  <rect id="svg_1" height="156" width="197" y="107" x="390" stroke-linecap="null" stroke-linejoin="null" stroke-dasharray="null" stroke-width="6" stroke="url(#svg_2)" fill="url(#svg_3)"/>
 </g>
</svg>